 <svg className="w-5 h-5 text-indigo-600 dark:text-indigo-400" fill="none" stroke="currentColor" viewBox="0 0 24 24" data-darkreader-inline-stroke="" style="--darkreader-inline-stroke: currentColor;">
                  <path strokeLinecap="round" strokeLinejoin="round" strokeWidth="1.5" d="M21.75 6.75v10.5a2.25 2.25 0 0 1-2.25 2.25h-15a2.25 2.25 0 0 1-2.25-2.25V6.75m19.5 0A2.25 2.25 0 0 0 19.5 4.5h-15a2.25 2.25 0 0 0-2.25 2.25m19.5 0v.243a2.25 2.25 0 0 1-1.07 1.916l-7.5 4.615a2.25 2.25 0 0 1-2.36 0L3.32 8.91a2.25 2.25 0 0 1-1.07-1.916V6.75"></path>
                </svg>